<?xml version="1.0" encoding="utf-8"?>
<!-- Generator: Adobe Illustrator 19.2.0, SVG Export Plug-In . SVG Version: 6.00 Build 0)  -->
<svg version="1.1" id="Layer_1" xmlns="http://www.w3.org/2000/svg" xmlns:xlink="http://www.w3.org/1999/xlink" x="0px" y="0px"
	 viewBox="0 0 612 792" style="enable-background:new 0 0 612 792;" xml:space="preserve">
<style type="text/css">
	.st0{fill:#FFFFFF;}
</style>
<g>
	<path class="st0" d="M316.8,438.9l-8.8,1.9c0,0-1.2,0.2-0.5-0.8c1.8-2.9,7.3-11.4,7.3-11.4c0.9-1.4,0.5-3.2-0.9-4.1
		c-1.4-0.9-3.2-0.5-4.1,0.9l-11,17.2c-0.9,1.4-0.9,2.9-0.1,4.2c0.8,1.2,2.3,1.7,3.9,1.4c0,0,7.6-1.6,10.2-2.2
		c0.6-0.1,0.3,0.6,0.3,0.6l-7,13.7c-0.8,1.5-0.2,3.3,1.3,4c0.4,0.2,0.9,0.3,1.4,0.3c1.1,0,2.1-0.6,2.7-1.6l9.6-18.7
		c0.7-1.4,0.6-2.9-0.2-4.1C319.8,439,318.4,438.6,316.8,438.9L316.8,438.9z M316.8,438.9"/>
	<path class="st0" d="M272.6,426.9c-1.3-1-3.2-0.7-4.2,0.7l-7.4,10.3c-1,1.3-0.7,3.2,0.7,4.2c0.5,0.4,1.1,0.6,1.7,0.6
		c0.9,0,1.8-0.4,2.4-1.2l7.4-10.3C274.3,429.7,274,427.9,272.6,426.9L272.6,426.9z M272.6,426.9"/>
	<path class="st0" d="M286.7,443.6c-1.3-1-3.2-0.7-4.2,0.7l-7.4,10.3c-1,1.3-0.7,3.2,0.7,4.2c0.5,0.4,1.1,0.6,1.7,0.6
		c0.9,0,1.8-0.4,2.4-1.2l7.4-10.3C288.3,446.4,288,444.6,286.7,443.6L286.7,443.6z M286.7,443.6"/>
	<path class="st0" d="M339.8,426.9c-1.3-1-3.2-0.7-4.2,0.7l-7.4,10.3c-1,1.3-0.7,3.2,0.7,4.2c0.5,0.4,1.1,0.6,1.7,0.6
		c0.9,0,1.8-0.4,2.4-1.2l7.4-10.3C341.4,429.7,341.1,427.9,339.8,426.9L339.8,426.9z M339.8,426.9"/>
	<path class="st0" d="M353.8,443.6c-1.3-1-3.2-0.7-4.2,0.7l-7.4,10.3c-1,1.3-0.7,3.2,0.7,4.2c0.5,0.4,1.1,0.6,1.7,0.6
		c0.9,0,1.8-0.4,2.4-1.2l7.4-10.3C355.5,446.4,355.2,444.6,353.8,443.6L353.8,443.6z M353.8,443.6"/>
	<path class="st0" d="M356,368.1c0.7-2.5,0.9-5,0.9-7.5c0-18-14.7-32.7-32.7-32.7c-14.2,0-26.6,9-31,22.4c-0.1,0.2-0.1,0.5-0.5,0.6
		c-0.1,0-0.3,0-0.4,0c-0.3,0-0.7,0-1.1,0c-10.5,0-19.9,6.6-23.8,16.6c-0.1,0.2-0.4,0.6-1.3,0.5c-1.3-0.2-2.6-0.3-3.9-0.3
		c-14,0-25.3,11.4-25.3,25.3c0,14,11.4,25.3,25.3,25.3h85.9c14,0,25.3-11.4,25.3-25.3c0-10.8-6.9-20.4-17-23.9
		C356.2,369.1,355.8,368.9,356,368.1L356,368.1z M348.1,412.4h-85.9c-10.7,0-19.3-8.7-19.3-19.3s8.7-19.3,19.3-19.3
		c1.3,0,2.6,0.1,3.9,0.4c0.5,0.1,1,0.1,1.4,0.1c2.5,0,4.4-1.4,5.1-3.6c2.7-8.2,10.2-13.7,18.5-13.7c0.3,0,0.5,0,0.9,0
		c0.3,0,0.7,0.1,1.1,0.1h0.1c2.1,0,4.7-0.7,5.4-4.2c0,0,0-0.1,0-0.1c3.5-11.2,13.7-18.7,25.5-18.7c14.7,0,26.7,12,26.7,26.7
		c0,2.5-0.4,5.1-1.1,7.6c-0.5,1.8-0.1,3.1,0.3,3.9c0.9,1.7,2.6,2.1,3.3,2.3l0.1,0c8.2,2.4,14,10,14,18.6
		C367.5,403.7,358.8,412.4,348.1,412.4L348.1,412.4z M348.1,412.4"/>
</g>
</svg>
