<?xml version="1.0" encoding="utf-8"?>
<!-- Generator: Adobe Illustrator 19.2.0, SVG Export Plug-In . SVG Version: 6.00 Build 0)  -->
<svg version="1.1" id="Layer_1" xmlns="http://www.w3.org/2000/svg" xmlns:xlink="http://www.w3.org/1999/xlink" x="0px" y="0px"
	 viewBox="0 0 612 792" style="enable-background:new 0 0 612 792;" xml:space="preserve">
<style type="text/css">
	.st0{fill:#FFFFFF;}
</style>
<g>
	<path class="st0" d="M315.4,394.8c0,0.4,0.4,0.8,0.8,0.8h1.6c0.4,0,0.8-0.4,0.8-0.8c0-0.4-0.4-0.8-0.8-0.8h-1.6
		C315.8,394,315.4,394.4,315.4,394.8L315.4,394.8z M315.4,394.8"/>
	<path class="st0" d="M315.1,396.6c-0.1-0.4-0.3-0.7-0.5-1c0-0.2,0.1-0.5,0.1-0.7c0-2.7-2.2-4.8-4.8-4.8c-1.2,0-2.3,0.5-3.2,1.2
		c-1.1-0.8-2.5-1.2-4-1.2c-3.9,0-7.1,3.1-7.2,7c-1.4,0.8-2.4,2.4-2.4,4.2c0,2.6,2.1,4.8,4.8,4.8h16c2.6,0,4.8-2.2,4.8-4.8
		C318.6,399,317.1,397.1,315.1,396.6L315.1,396.6z M309.8,391.6c1.5,0,2.7,1,3.1,2.3c-0.8-0.5-1.7-0.7-2.7-0.7c-0.5,0-1,0.1-1.5,0.2
		c-0.3-0.4-0.6-0.8-0.9-1.1C308.4,391.8,309.1,391.6,309.8,391.6L309.8,391.6z M313.8,404.4h-16c-1.8,0-3.2-1.4-3.2-3.2
		c0-1.5,1.1-2.8,2.5-3.1c0-0.3-0.1-0.6-0.1-0.9c0-3.1,2.5-5.6,5.6-5.6c2.5,0,4.7,1.7,5.4,4c0.6-0.5,1.4-0.8,2.2-0.8
		c1.9,0,3.4,1.4,3.6,3.2h0c1.8,0,3.2,1.4,3.2,3.2C317,403,315.6,404.4,313.8,404.4L313.8,404.4z M313.8,404.4"/>
	<path class="st0" d="M314.9,390.8l1.1-1.1c0.3-0.3,0.3-0.8,0-1.1c-0.3-0.3-0.8-0.3-1.1,0l-1.1,1.1c-0.3,0.3-0.3,0.8,0,1.1
		C314.1,391.2,314.6,391.2,314.9,390.8L314.9,390.8z M314.9,390.8"/>
	<path class="st0" d="M309.8,389.2c0.4,0,0.8-0.4,0.8-0.8v-1.6c0-0.4-0.4-0.8-0.8-0.8c-0.4,0-0.8,0.4-0.8,0.8v1.6
		C309,388.8,309.4,389.2,309.8,389.2L309.8,389.2z M309.8,389.2"/>
</g>
</svg>
