<?xml version="1.0" encoding="utf-8"?>
<!-- Generator: Adobe Illustrator 19.2.0, SVG Export Plug-In . SVG Version: 6.00 Build 0)  -->
<svg version="1.1" id="Layer_1" xmlns="http://www.w3.org/2000/svg" xmlns:xlink="http://www.w3.org/1999/xlink" x="0px" y="0px"
	 viewBox="293 383 25 25" style="enable-background:new 262 350 87 92;" xml:space="preserve">
<style type="text/css">
	.st0{fill:#FFFFFF;}
</style>
<g>
	<path class="st0" d="M309,405.4c-0.4,0-0.8,0.4-0.8,0.8v1.6c0,0.4,0.4,0.8,0.8,0.8c0.4,0,0.8-0.4,0.8-0.8v-1.6
		C309.8,405.8,309.4,405.4,309,405.4L309,405.4z M309,405.4"/>
	<path class="st0" d="M302.6,405.4c-0.4,0-0.8,0.4-0.8,0.8v1.6c0,0.4,0.4,0.8,0.8,0.8c0.4,0,0.8-0.4,0.8-0.8v-1.6
		C303.4,405.8,303,405.4,302.6,405.4L302.6,405.4z M302.6,405.4"/>
	<path class="st0" d="M312.2,403.8c-0.4,0-0.8,0.4-0.8,0.8v1.6c0,0.4,0.4,0.8,0.8,0.8c0.4,0,0.8-0.4,0.8-0.8v-1.6
		C313,404.2,312.6,403.8,312.2,403.8L312.2,403.8z M312.2,403.8"/>
	<path class="st0" d="M315.1,393.6c-0.1-0.4-0.3-0.7-0.5-1c0-0.2,0.1-0.5,0.1-0.7c0-2.7-2.2-4.8-4.8-4.8c-1.2,0-2.3,0.5-3.2,1.2
		c-1.1-0.8-2.5-1.2-4-1.2c-3.9,0-7.1,3.1-7.2,7c-1.4,0.8-2.4,2.4-2.4,4.2c0,2.6,2.2,4.8,4.8,4.8h16c2.6,0,4.8-2.2,4.8-4.8
		C318.6,396,317.1,394.1,315.1,393.6L315.1,393.6z M309.8,388.6c1.5,0,2.7,1,3.1,2.3c-0.8-0.5-1.7-0.7-2.7-0.7c-0.5,0-1,0.1-1.5,0.2
		c-0.3-0.4-0.6-0.8-0.9-1.1C308.4,388.8,309.1,388.6,309.8,388.6L309.8,388.6z M313.8,401.4h-16c-1.8,0-3.2-1.4-3.2-3.2
		c0-1.5,1.1-2.8,2.5-3.1c0-0.3-0.1-0.6-0.1-0.9c0-3.1,2.5-5.6,5.6-5.6c2.5,0,4.7,1.7,5.4,4c0.6-0.5,1.4-0.8,2.2-0.8
		c1.9,0,3.4,1.4,3.6,3.2h0c1.8,0,3.2,1.4,3.2,3.2C317,400,315.6,401.4,313.8,401.4L313.8,401.4z M313.8,401.4"/>
	<path class="st0" d="M305.8,403.8c-0.4,0-0.8,0.4-0.8,0.8v1.6c0,0.4,0.4,0.8,0.8,0.8c0.4,0,0.8-0.4,0.8-0.8v-1.6
		C306.6,404.2,306.2,403.8,305.8,403.8L305.8,403.8z M305.8,403.8"/>
	<path class="st0" d="M314.9,387.8l1.1-1.1c0.3-0.3,0.3-0.8,0-1.1c-0.3-0.3-0.8-0.3-1.1,0l-1.1,1.1c-0.3,0.3-0.3,0.8,0,1.1
		C314.1,388.2,314.6,388.2,314.9,387.8L314.9,387.8z M314.9,387.8"/>
	<path class="st0" d="M299.4,403.8c-0.4,0-0.8,0.4-0.8,0.8v1.6c0,0.4,0.4,0.8,0.8,0.8c0.4,0,0.8-0.4,0.8-0.8v-1.6
		C300.2,404.2,299.8,403.8,299.4,403.8L299.4,403.8z M299.4,403.8"/>
	<path class="st0" d="M309.8,386.2c0.4,0,0.8-0.4,0.8-0.8v-1.6c0-0.4-0.4-0.8-0.8-0.8c-0.4,0-0.8,0.4-0.8,0.8v1.6
		C309,385.8,309.4,386.2,309.8,386.2L309.8,386.2z M309.8,386.2"/>
	<path class="st0" d="M315.4,391.8c0,0.4,0.4,0.8,0.8,0.8h1.6c0.4,0,0.8-0.4,0.8-0.8c0-0.4-0.4-0.8-0.8-0.8h-1.6
		C315.8,391,315.4,391.4,315.4,391.8L315.4,391.8z M315.4,391.8"/>
</g>
</svg>
