<?xml version="1.0" encoding="utf-8"?>
<!-- Generator: Adobe Illustrator 19.2.0, SVG Export Plug-In . SVG Version: 6.00 Build 0)  -->
<svg version="1.1" id="Layer_1" xmlns="http://www.w3.org/2000/svg" xmlns:xlink="http://www.w3.org/1999/xlink" x="0px" y="0px"
	 viewBox="0 0 612 792" style="enable-background:new 0 0 612 792;" xml:space="preserve">
<style type="text/css">
	.st0{fill:#FFFFFF;}
</style>
<g>
	<path class="st0" d="M305.7,375c-11.6,0-21,9.5-21,21s9.5,21,21,21c11.6,0,21-9.5,21-21C326.7,384.5,317.4,375,305.7,375L305.7,375
		z M305.7,413.6c-9.7,0-17.5-7.8-17.5-17.5c0-9.6,7.8-17.5,17.5-17.5c9.6,0,17.5,7.8,17.5,17.5C323.2,405.7,315.4,413.6,305.7,413.6
		L305.7,413.6z M304,366.7v-6c0-1,0.8-1.7,1.7-1.7c1,0,1.7,0.8,1.7,1.7v6c0,1-0.8,1.7-1.7,1.7C304.8,368.5,304,367.7,304,366.7
		L304,366.7z M286.6,366.3c-0.5-0.9-0.2-1.9,0.7-2.4c0.9-0.5,1.9-0.2,2.4,0.7l3,5.2c0.5,0.9,0.2,1.9-0.7,2.4
		c-0.3,0.2-0.6,0.2-0.9,0.2c-0.6,0-1.2-0.3-1.5-0.9L286.6,366.3z M281.9,382.3c-0.3,0.6-1,0.9-1.5,0.9c-0.3,0-0.6-0.1-0.9-0.2
		l-5.2-3c-0.9-0.5-1.2-1.5-0.7-2.4c0.5-0.9,1.5-1.1,2.4-0.7l5.2,3C282.1,380.4,282.4,381.4,281.9,382.3L281.9,382.3z M276.5,397.8
		h-6c-1,0-1.7-0.8-1.7-1.7c0-1,0.8-1.7,1.7-1.7h6c1,0,1.7,0.8,1.7,1.7C278.2,397,277.4,397.8,276.5,397.8L276.5,397.8z M281.9,409.8
		c0.5,0.9,0.2,1.9-0.7,2.4l-5.2,3c-0.3,0.2-0.6,0.2-0.9,0.2c-0.6,0-1.2-0.3-1.5-0.9c-0.5-0.9-0.2-1.9,0.7-2.4l5.2-3
		C280.3,408.7,281.5,409,281.9,409.8L281.9,409.8z M292.6,422.3l-3,5.2c-0.3,0.6-1,0.9-1.5,0.9c-0.3,0-0.6-0.1-0.9-0.2
		c-0.9-0.5-1.2-1.5-0.7-2.4l3-5.2c0.5-0.9,1.5-1.2,2.4-0.7C292.8,420.4,293.1,421.5,292.6,422.3L292.6,422.3z M307.5,425.4v6
		c0,1-0.8,1.7-1.7,1.7c-1,0-1.7-0.8-1.7-1.7v-6c0-1,0.8-1.7,1.7-1.7C306.8,423.6,307.5,424.4,307.5,425.4L307.5,425.4z M324.9,425.8
		c0.5,0.9,0.2,1.9-0.7,2.4c-0.3,0.1-0.6,0.2-0.9,0.2c-0.6,0-1.2-0.3-1.5-0.9l-3-5.2c-0.5-0.9-0.2-1.9,0.7-2.4
		c0.9-0.5,1.9-0.2,2.4,0.7L324.9,425.8z M337.8,414.6c-0.3,0.6-1,0.9-1.5,0.9c-0.3,0-0.6-0.1-0.9-0.2l-5.2-3
		c-0.9-0.5-1.1-1.5-0.7-2.4c0.5-0.9,1.5-1.2,2.4-0.7l5.2,3C338,412.7,338.3,413.7,337.8,414.6L337.8,414.6z M342.8,396.1
		c0,1-0.8,1.7-1.7,1.7h-6c-1,0-1.7-0.8-1.7-1.7c0-1,0.8-1.7,1.7-1.7h6C342,394.2,342.8,395.1,342.8,396.1L342.8,396.1z M329.6,382.3
		c-0.5-0.9-0.2-1.9,0.7-2.4l5.2-3c0.9-0.5,1.9-0.2,2.4,0.7c0.5,0.9,0.2,1.9-0.7,2.4l-5.2,3c-0.3,0.2-0.6,0.2-0.9,0.2
		C330.6,383.2,330,382.9,329.6,382.3L329.6,382.3z M318.9,369.8l3-5.2c0.5-0.9,1.5-1.2,2.4-0.7c0.9,0.5,1.1,1.5,0.7,2.4l-3,5.2
		c-0.3,0.6-1,0.9-1.5,0.9c-0.3,0-0.6-0.1-0.9-0.2C318.7,371.7,318.4,370.6,318.9,369.8L318.9,369.8z M318.9,369.8"/>
</g>
</svg>
