<?xml version="1.0" encoding="utf-8"?>
<!-- Generator: Adobe Illustrator 19.2.0, SVG Export Plug-In . SVG Version: 6.00 Build 0)  -->
<svg version="1.1" id="Layer_1" xmlns="http://www.w3.org/2000/svg" xmlns:xlink="http://www.w3.org/1999/xlink" x="0px" y="0px"
	 viewBox="285 385 42 24" style="enable-background:new 262 350 87 92;" xml:space="preserve">
<style type="text/css">
	.st0{fill:#FFFFFF;}
</style>
<g>
	<path class="st0" d="M325.2,389.3c-1.4-1.9-3.5-3.4-5.9-4c-0.8-0.2-1.6-0.3-2.4-0.3c-1.7,0-3.3,0.4-4.6,1.3
		c-2.1,1.3-3.5,3.5-3.8,5.9c-0.4,2.4,0.6,5,2.6,6.5c1.1,0.8,2.6,1.3,4,1.3c1.1,0,2.1-0.3,2.9-0.8c2.2-1.3,3.2-4.2,2.1-6.4
		c-0.5-1.1-1.5-2-2.7-2.4c-0.3-0.1-0.7-0.2-1-0.2l0,0.8c0.3,0,0.6,0.1,0.9,0.2c0.9,0.3,1.7,1,2.1,2c0.2,0.4,0.3,0.9,0.3,1.4
		c0,0.5-0.1,1-0.3,1.4c-0.3,0.9-1,1.7-1.9,2.2c-1.5,0.9-3.9,0.6-5.5-0.6c-1.5-1.2-2.3-3.2-2-5.2c0.3-2,1.5-3.8,3.2-4.8
		c0.8-0.5,1.8-0.9,2.8-1c0.4-0.1,1-0.1,1.5,0c0.5,0,1,0.1,1.5,0.3c2,0.5,3.8,1.7,5,3.4c1.2,1.7,1.8,3.7,1.7,5.8
		c-0.1,2.1-0.8,4.2-2,5.9c-1.2,1.7-2.9,3.1-4.9,4c-0.9,0.4-1.9,0.7-3.1,0.8c-0.7,0.1-1.5,0.1-2.4,0.1l-25.9,0.3l-4.4,0.2l0,0.8
		l29.3,0c0.3,0,0.7,0,1,0l0.6,0c0.6,0,1.2,0,1.9-0.1c1.2-0.2,2.4-0.5,3.5-0.9c2.2-0.9,4.2-2.5,5.5-4.4c1.4-1.9,2.2-4.3,2.3-6.7
		C327.3,393.7,326.6,391.2,325.2,389.3L325.2,389.3z M325.2,389.3"/>
	<path class="st0" d="M298.7,405.4c0.1,0,0.2,0,0.3,0l0.8,0c0.2,0,0.4,0,0.6,0c0.4,0,1,0,1.5-0.1c1.1-0.2,2.2-0.7,3.1-1.4
		c1.8-1.4,2.8-3.8,2.4-6.1c-0.3-2.3-2.3-4.2-4.6-4.5c-1.3-0.2-2.4,0.1-3.3,0.8c-0.9,0.7-1.6,1.8-1.7,2.9c-0.2,1.2,0.3,2.4,1.1,3.2
		c0.9,0.8,2.3,1.1,3.3,0.7c0.8-0.3,1.4-0.9,1.7-1.6l-0.7-0.3c-0.3,0.5-0.8,0.9-1.3,1c-0.2,0-0.3,0.1-0.5,0.1c-0.6,0-1.3-0.3-1.7-0.7
		c-0.6-0.6-0.8-1.3-0.6-2.2c0.2-0.7,0.6-1.5,1.2-1.9c0.7-0.5,1.4-0.6,2.3-0.5c1.6,0.2,3,1.6,3.2,3.3c0.3,1.7-0.4,3.5-1.8,4.6
		c-0.7,0.6-1.5,1-2.4,1.1c-0.4,0.1-0.7,0.1-1.1,0.1l-15.4,0.4c-0.7,0.1-1.5,0.1-2.2,0.2l0,0.8L298.7,405.4z M298.7,405.4"/>
</g>
</svg>
