<?xml version="1.0" encoding="utf-8"?>
<!-- Generator: Adobe Illustrator 19.2.0, SVG Export Plug-In . SVG Version: 6.00 Build 0)  -->
<svg version="1.1" id="Layer_1" xmlns="http://www.w3.org/2000/svg" xmlns:xlink="http://www.w3.org/1999/xlink" x="0px" y="0px"
	 viewBox="262 350 87 92" xml:space="preserve">
<style type="text/css">
	.st0{fill:#FFFFFF;}
</style>
<g>
	<path class="st0" d="M305.3,409L305.3,409c-0.4,0-0.9-0.2-1.2-0.5l-11.1-11.1c-0.7-0.7-0.7-1.7,0-2.4l11.1-11.1
		c0.6-0.6,1.8-0.6,2.4,0l11.1,11.1c0.7,0.7,0.7,1.7,0,2.4l-11.1,11.1C306.2,408.9,305.8,409,305.3,409L305.3,409z M296.6,396.3
		l8.7,8.7l8.7-8.7l-8.7-8.7L296.6,396.3z M313.9,363.9c-0.7-0.7-1.7-0.7-2.4,0l-4.5,4.5v-12c0-0.9-0.8-1.7-1.7-1.7
		c-0.9,0-1.7,0.8-1.7,1.7v11.9l-4.4-4.4c-0.7-0.7-1.7-0.7-2.4,0c-0.7,0.7-0.7,1.7,0,2.4l6.8,6.8v6.3c0,0.9,0.8,1.7,1.7,1.7
		c0.9,0,1.7-0.8,1.7-1.7v-6.3l6.9-6.9C314.5,365.6,314.5,364.5,313.9,363.9L313.9,363.9z M313.9,426.4l-6.8-6.8v-6.3
		c0-0.9-0.8-1.7-1.7-1.7c-0.9,0-1.7,0.8-1.7,1.7v6.3l-6.9,6.9c-0.7,0.7-0.7,1.7,0,2.4c0.3,0.3,0.8,0.5,1.2,0.5
		c0.4,0,0.9-0.2,1.2-0.5l4.5-4.5v12c0,0.9,0.8,1.7,1.7,1.7c0.9,0,1.7-0.8,1.7-1.7v-12l4.4,4.4c0.3,0.3,0.8,0.5,1.2,0.5
		c0.4,0,0.9-0.2,1.2-0.5C314.5,428.1,314.5,427,313.9,426.4L313.9,426.4z M345.3,394.6h-12l4.4-4.4c0.7-0.7,0.7-1.7,0-2.4
		c-0.7-0.7-1.7-0.7-2.4,0l-6.8,6.8h-6.4c-0.9,0-1.7,0.8-1.7,1.7c0,0.9,0.8,1.7,1.7,1.7h6.3l6.9,6.9c0.3,0.3,0.8,0.5,1.2,0.5
		c0.4,0,0.9-0.2,1.2-0.5c0.7-0.7,0.7-1.7,0-2.4l-4.5-4.5h12c0.9,0,1.7-0.8,1.7-1.7C347,395.4,346.2,394.6,345.3,394.6L345.3,394.6z
		 M288.4,394.7h-6.3l-6.9-6.9c-0.7-0.7-1.7-0.7-2.4,0c-0.7,0.7-0.7,1.7,0,2.4l4.5,4.5h-12c-0.9,0-1.7,0.8-1.7,1.7
		c0,0.9,0.8,1.7,1.7,1.7h12l-4.4,4.4c-0.7,0.7-0.7,1.7,0,2.4c0.3,0.3,0.8,0.5,1.2,0.5c0.4,0,0.9-0.2,1.2-0.5l6.8-6.8h6.3
		c0.9,0,1.7-0.8,1.7-1.7C290.1,395.4,289.4,394.7,288.4,394.7L288.4,394.7z M334.8,366.8c-0.7-0.7-1.7-0.7-2.4,0l-8.5,8.5V369
		c0-0.9-0.8-1.7-1.7-1.7c-0.9,0-1.7,0.8-1.7,1.7v9.6l-7.7,7.7c-0.7,0.7-0.7,1.7,0,2.4c0.3,0.3,0.8,0.5,1.2,0.5
		c0.4,0,0.9-0.2,1.2-0.5l7.7-7.7h9.7c0.9,0,1.7-0.8,1.7-1.7c0-0.9-0.8-1.7-1.7-1.7h-6.4l8.5-8.5
		C335.4,368.6,335.4,367.5,334.8,366.8L334.8,366.8z M297.8,403.8c-0.7-0.7-1.7-0.7-2.4,0l-7.7,7.7H278c-0.9,0-1.7,0.8-1.7,1.7
		c0,0.9,0.8,1.7,1.7,1.7h6.3l-8.5,8.5c-0.7,0.7-0.7,1.7,0,2.4c0.3,0.3,0.8,0.5,1.2,0.5c0.4,0,0.9-0.2,1.2-0.5l8.5-8.5v6.3
		c0,0.9,0.8,1.7,1.7,1.7c0.9,0,1.7-0.8,1.7-1.7V414l7.7-7.7C298.5,405.6,298.5,404.5,297.8,403.8L297.8,403.8z M334.8,423.4
		l-8.4-8.4h6.3c0.9,0,1.7-0.8,1.7-1.7c0-0.9-0.8-1.7-1.7-1.7H323l-6.4-6.4c-0.7-0.7-1.7-0.7-2.4,0c-0.7,0.7-0.7,1.7,0,2.4l6.4,6.4
		v9.7c0,0.9,0.8,1.7,1.7,1.7c0.9,0,1.7-0.8,1.7-1.7v-6.4l8.5,8.5c0.3,0.3,0.8,0.5,1.2,0.5c0.4,0,0.9-0.2,1.2-0.5
		C335.5,425.1,335.5,424,334.8,423.4L334.8,423.4z M296.4,385.1l-6.3-6.3V369c0-0.9-0.8-1.7-1.7-1.7c-0.9,0-1.7,0.8-1.7,1.7v6.3
		l-8.5-8.5c-0.7-0.7-1.7-0.7-2.4,0c-0.7,0.7-0.7,1.7,0,2.4l8.4,8.4H278c-0.9,0-1.7,0.8-1.7,1.7c0,0.9,0.8,1.7,1.7,1.7h9.7l6.4,6.4
		c0.3,0.3,0.8,0.5,1.2,0.5c0.4,0,0.9-0.2,1.2-0.5C297.1,386.8,297.1,385.7,296.4,385.1L296.4,385.1z M296.4,385.1"/>
</g>
</svg>
